# xmcd
#
# Track frame offsets: 
#        150
#        17563
#        33766
#        53879
#        58612
#        76012
#        100958
#        122545
#        142593
#        162940
#        175119
#
# Disc length: 2690 seconds
#
# Revision: 2
# Processed by: cddbd v1.5.2PL0 Copyright (c) Steve Scherf et al.
# Submitted via: ExactAudioCopy v0.99pb4
#
DISCID=770a800b
DTITLE=Laetitia Shériff - Codification
DYEAR=2004
DGENRE=Alt.Rock
TTITLE0=Roses
TTITLE1=Codification
TTITLE2=Music box
TTITLE3=No moan
TTITLE4=Baby man
TTITLE5=Aquarius
TTITLE6=That lover
TTITLE7=Binds...
TTITLE8=The date
TTITLE9=Sleep tight
TTITLE10=The butcher's shop
EXTD=Laetitia Shériff - voix, basse, guitares, claviers, harpe de l'es
EXTD=t\nOlivier Mellano - guitares, basse, claviers, moog. samples\nGa
EXTD=ël Desbois - batterie percussions, claviers, voix sur "Music box"
EXTD=\nEric Orthuon - guitare sur "Music box"\n YEAR: 2004 ID3G: 40
EXTT0=
EXTT1=
EXTT2=
EXTT3=
EXTT4=
EXTT5=
EXTT6=
EXTT7=
EXTT8=
EXTT9=
EXTT10=
PLAYORDER=
